<svg xmlns="http://www.w3.org/2000/svg" xmlns:xlink="http://www.w3.org/1999/xlink" version="1.0" x="0px" y="0px" width="100px" height="100px" viewBox="0 0 100 100" enable-background="new 0 0 100 100" xml:space="preserve">
<g id="Captions">
</g>
<g id="Your_Icon">
	<path fill="#000000" d="M73.959,79.8c-13.607,0-24.956-11.188-25.432-11.664c-0.102-0.104-10.624-10.449-22.485-10.449   c-11.902,0-22.378,10.344-22.486,10.449c-0.812,0.812-2.13,0.812-2.944,0c-0.816-0.814-0.816-2.132,0-2.948   c0.476-0.476,11.825-11.67,25.43-11.67c13.607,0,24.955,11.194,25.432,11.67c0.102,0.104,10.624,10.447,22.486,10.447   c11.859,0,22.382-10.344,22.488-10.447c0.816-0.812,2.134-0.812,2.942,0.006c0.816,0.812,0.816,2.128,0,2.942   C98.912,68.612,87.563,79.8,73.959,79.8z"/>
	<path fill="#000000" d="M73.959,63.147c-13.607,0-24.956-11.194-25.432-11.67c-0.102-0.102-10.624-10.445-22.485-10.445   c-11.902,0-22.378,10.343-22.486,10.445c-0.812,0.814-2.13,0.814-2.944,0c-0.816-0.816-0.816-2.132,0-2.944   c0.476-0.476,11.825-11.668,25.43-11.668c13.607,0,24.955,11.192,25.432,11.668c0.102,0.1,10.624,10.447,22.486,10.447   c11.859,0,22.382-10.348,22.488-10.447c0.816-0.812,2.134-0.812,2.942,0.002c0.816,0.816,0.816,2.126,0,2.942   C98.912,51.953,87.563,63.147,73.959,63.147z"/>
	<path fill="#000000" d="M73.959,46.482c-13.607,0-24.956-11.194-25.432-11.67c-0.102-0.104-10.624-10.447-22.485-10.447   c-11.902,0-22.378,10.343-22.486,10.447c-0.812,0.812-2.13,0.812-2.944,0c-0.816-0.816-0.816-2.134,0-2.948   C1.088,31.388,12.437,20.2,26.042,20.2c13.607,0,24.955,11.188,25.432,11.664c0.102,0.104,10.624,10.449,22.486,10.449   c11.859,0,22.382-10.346,22.488-10.449c0.816-0.812,2.134-0.81,2.942,0.006c0.816,0.812,0.816,2.126,0,2.942   C98.912,35.288,87.563,46.482,73.959,46.482z"/>
</g>
</svg>