<svg xmlns="http://www.w3.org/2000/svg" xmlns:xlink="http://www.w3.org/1999/xlink" version="1.1" id="Layer_1" x="0px" y="0px" width="98px" height="86.961px" viewBox="0 0 98 86.961" enable-background="new 0 0 98 86.961" xml:space="preserve">
<path d="M49,0.387c-26.229,0-47.501,17.542-47.501,39.175c0,11,5.5,20.932,14.347,28.05C14.051,76.857,10.343,82.732,0.5,82.367  c4.879,3.56,19.34,6.867,32.362-5.941c5.04,1.5,10.471,2.322,16.138,2.322c26.235,0,47.5-17.542,47.5-39.185  C96.5,17.929,75.234,0.387,49,0.387z M49,73.154c-22.484,0-40.715-15.036-40.715-33.591C8.285,21.021,26.515,5.983,49,5.983  c22.485,0,40.715,15.037,40.715,33.579C89.715,58.118,71.484,73.154,49,73.154z"/>
</svg>